<mxfile host="app.diagrams.net" agent="Mozilla/5.0 (Windows NT 10.0; Win64; x64) AppleWebKit/537.36 (KHTML, like Gecko) Chrome/138.0.0.0 Safari/537.36" version="28.0.4">
  <diagram name="페이지-1" id="I-vvyjljc9d17jczZfg2">
    <mxGraphModel dx="1426" dy="743" grid="1" gridSize="10" guides="1" tooltips="1" connect="1" arrows="1" fold="1" page="1" pageScale="1" pageWidth="827" pageHeight="1169" math="0" shadow="0">
      <root>
        <mxCell id="0" />
        <mxCell id="1" parent="0" />
        <mxCell id="cep7ivkO_HnQBhiWhB2u-1" value="" style="endArrow=classic;html=1;rounded=0;exitX=1;exitY=0;exitDx=0;exitDy=0;entryX=0;entryY=0.25;entryDx=0;entryDy=0;" edge="1" parent="1" source="cep7ivkO_HnQBhiWhB2u-10">
          <mxGeometry width="50" height="50" relative="1" as="geometry">
            <mxPoint x="249" y="283" as="sourcePoint" />
            <mxPoint x="589.0000000000002" y="128.37" as="targetPoint" />
          </mxGeometry>
        </mxCell>
        <mxCell id="cep7ivkO_HnQBhiWhB2u-2" style="edgeStyle=orthogonalEdgeStyle;rounded=0;orthogonalLoop=1;jettySize=auto;html=1;entryX=0.5;entryY=0;entryDx=0;entryDy=0;" edge="1" parent="1" source="cep7ivkO_HnQBhiWhB2u-16" target="cep7ivkO_HnQBhiWhB2u-20">
          <mxGeometry relative="1" as="geometry" />
        </mxCell>
        <mxCell id="cep7ivkO_HnQBhiWhB2u-3" value="" style="endArrow=classic;html=1;rounded=0;exitX=1;exitY=0.5;exitDx=0;exitDy=0;entryX=0;entryY=0.25;entryDx=0;entryDy=0;edgeStyle=orthogonalEdgeStyle;" edge="1" parent="1" source="cep7ivkO_HnQBhiWhB2u-7" target="cep7ivkO_HnQBhiWhB2u-19">
          <mxGeometry width="50" height="50" relative="1" as="geometry">
            <mxPoint x="-111" y="829" as="sourcePoint" />
            <mxPoint x="450" y="577.6800000000001" as="targetPoint" />
          </mxGeometry>
        </mxCell>
        <mxCell id="cep7ivkO_HnQBhiWhB2u-4" value="" style="group" vertex="1" connectable="0" parent="1">
          <mxGeometry x="10" y="530" width="250" height="271" as="geometry" />
        </mxCell>
        <mxCell id="cep7ivkO_HnQBhiWhB2u-5" value="" style="group" vertex="1" connectable="0" parent="cep7ivkO_HnQBhiWhB2u-4">
          <mxGeometry x="103" y="-144" width="250" height="250.1538461538462" as="geometry" />
        </mxCell>
        <mxCell id="cep7ivkO_HnQBhiWhB2u-6" value="ChartVO&amp;nbsp;" style="swimlane;fontStyle=0;childLayout=stackLayout;horizontal=1;startSize=30;horizontalStack=0;resizeParent=1;resizeParentMax=0;resizeLast=0;collapsible=1;marginBottom=0;whiteSpace=wrap;html=1;container=0;" vertex="1" parent="cep7ivkO_HnQBhiWhB2u-5">
          <mxGeometry x="10" y="-1.42" width="195.31" height="81.42" as="geometry">
            <mxRectangle x="100" y="80" width="140" height="30" as="alternateBounds" />
          </mxGeometry>
        </mxCell>
        <mxCell id="cep7ivkO_HnQBhiWhB2u-7" value="&lt;div&gt;&amp;nbsp; - String label&lt;/div&gt;&lt;div&gt;&amp;nbsp; - Double value&lt;/div&gt;" style="text;strokeColor=none;fillColor=none;align=left;verticalAlign=middle;spacingLeft=4;spacingRight=4;overflow=hidden;points=[[0,0.5],[1,0.5]];portConstraint=eastwest;rotatable=0;whiteSpace=wrap;html=1;container=0;" vertex="1" parent="cep7ivkO_HnQBhiWhB2u-5">
          <mxGeometry x="10" y="29.85" width="195.31" height="50.15" as="geometry" />
        </mxCell>
        <mxCell id="cep7ivkO_HnQBhiWhB2u-8" value="" style="rounded=0;whiteSpace=wrap;html=1;align=left;container=0;" vertex="1" parent="cep7ivkO_HnQBhiWhB2u-5">
          <mxGeometry x="10" y="79.99630769230771" width="195.31" height="20.846153846153847" as="geometry" />
        </mxCell>
        <mxCell id="cep7ivkO_HnQBhiWhB2u-9" value="" style="group" vertex="1" connectable="0" parent="1">
          <mxGeometry x="90" y="40" width="260" height="170" as="geometry" />
        </mxCell>
        <mxCell id="cep7ivkO_HnQBhiWhB2u-10" value="&lt;div&gt;&amp;nbsp; + List&amp;lt;ChartVO&amp;gt; getWeeklyVisitors()&lt;/div&gt;&lt;div&gt;&amp;nbsp; + Map&amp;lt;String, Integer&amp;gt; getVisitorSummary()&lt;/div&gt;&lt;div&gt;&amp;nbsp; + List&amp;lt;ChartVO&amp;gt; getWeeklySignups()&lt;/div&gt;&lt;div&gt;&amp;nbsp; + Map&amp;lt;String, Double&amp;gt; getTodayRevenue()&lt;/div&gt;&lt;div&gt;&amp;nbsp; + List&amp;lt;ChartVO&amp;gt; getWeeklyRevenue()&lt;/div&gt;" style="rounded=0;whiteSpace=wrap;html=1;align=left;container=0;" vertex="1" parent="cep7ivkO_HnQBhiWhB2u-9">
          <mxGeometry y="88.06" width="260" height="81.94" as="geometry" />
        </mxCell>
        <mxCell id="cep7ivkO_HnQBhiWhB2u-11" value="ChartController&amp;nbsp;" style="swimlane;fontStyle=0;childLayout=stackLayout;horizontal=1;startSize=30;horizontalStack=0;resizeParent=1;resizeParentMax=0;resizeLast=0;collapsible=1;marginBottom=0;whiteSpace=wrap;html=1;container=0;" vertex="1" parent="cep7ivkO_HnQBhiWhB2u-9">
          <mxGeometry width="260" height="88.06" as="geometry">
            <mxRectangle x="100" y="80" width="140" height="30" as="alternateBounds" />
          </mxGeometry>
        </mxCell>
        <mxCell id="cep7ivkO_HnQBhiWhB2u-12" value="&lt;div&gt;&amp;nbsp; - chartService: ChartService&lt;/div&gt;" style="text;strokeColor=none;fillColor=none;align=left;verticalAlign=middle;spacingLeft=4;spacingRight=4;overflow=hidden;points=[[0,0.5],[1,0.5]];portConstraint=eastwest;rotatable=0;whiteSpace=wrap;html=1;container=0;" vertex="1" parent="cep7ivkO_HnQBhiWhB2u-9">
          <mxGeometry y="30" width="260" height="58.06" as="geometry" />
        </mxCell>
        <mxCell id="cep7ivkO_HnQBhiWhB2u-13" style="rounded=0;orthogonalLoop=1;jettySize=auto;html=1;edgeStyle=orthogonalEdgeStyle;dashed=1;" edge="1" parent="1" source="cep7ivkO_HnQBhiWhB2u-10" target="cep7ivkO_HnQBhiWhB2u-6">
          <mxGeometry relative="1" as="geometry" />
        </mxCell>
        <mxCell id="cep7ivkO_HnQBhiWhB2u-14" value="" style="group" vertex="1" connectable="0" parent="1">
          <mxGeometry x="590" y="40" width="290" height="220" as="geometry" />
        </mxCell>
        <mxCell id="cep7ivkO_HnQBhiWhB2u-15" value="ChartService&amp;nbsp;" style="swimlane;fontStyle=0;childLayout=stackLayout;horizontal=1;startSize=30;horizontalStack=0;resizeParent=1;resizeParentMax=0;resizeLast=0;collapsible=1;marginBottom=0;whiteSpace=wrap;html=1;container=0;" vertex="1" parent="cep7ivkO_HnQBhiWhB2u-14">
          <mxGeometry width="290" height="70" as="geometry">
            <mxRectangle x="100" y="80" width="140" height="30" as="alternateBounds" />
          </mxGeometry>
        </mxCell>
        <mxCell id="cep7ivkO_HnQBhiWhB2u-17" value="&amp;nbsp; - chartMapper: ChartMapper" style="text;strokeColor=none;fillColor=none;align=left;verticalAlign=middle;spacingLeft=4;spacingRight=4;overflow=hidden;points=[[0,0.5],[1,0.5]];portConstraint=eastwest;rotatable=0;whiteSpace=wrap;html=1;container=0;" vertex="1" parent="cep7ivkO_HnQBhiWhB2u-15">
          <mxGeometry y="30" width="290" height="40" as="geometry" />
        </mxCell>
        <mxCell id="cep7ivkO_HnQBhiWhB2u-16" value="&lt;div&gt;&amp;nbsp; + List&amp;lt;ChartVO&amp;gt; getWeeklyVisitors()&lt;/div&gt;&lt;div&gt;&amp;nbsp; + int getTotalWeeklyVisitors()&lt;/div&gt;&lt;div&gt;&amp;nbsp; + int getAllVisitors()&lt;/div&gt;&lt;div&gt;&amp;nbsp; + List&amp;lt;ChartVO&amp;gt; getWeeklySignups()&lt;/div&gt;&lt;div&gt;&amp;nbsp; + void insertVisitorLog(Long userId)&lt;/div&gt;&lt;div&gt;&amp;nbsp; + double getTodayRevenue()&lt;/div&gt;&lt;div&gt;&amp;nbsp; + List&amp;lt;ChartVO&amp;gt; getWeeklyRevenue()&lt;/div&gt;" style="rounded=0;whiteSpace=wrap;html=1;align=left;container=0;" vertex="1" parent="cep7ivkO_HnQBhiWhB2u-14">
          <mxGeometry y="70.00125000000003" width="289.99999999999994" height="104.67874999999998" as="geometry" />
        </mxCell>
        <mxCell id="cep7ivkO_HnQBhiWhB2u-18" value="" style="group" vertex="1" connectable="0" parent="1">
          <mxGeometry x="559.5" y="353" width="351" height="170" as="geometry" />
        </mxCell>
        <mxCell id="cep7ivkO_HnQBhiWhB2u-19" value="&lt;div&gt;&amp;nbsp; + List&amp;lt;ChartVO&amp;gt; getWeeklyVisitors()&lt;/div&gt;&lt;div&gt;&amp;nbsp; + int getTotalWeeklyVisitors()&lt;/div&gt;&lt;div&gt;&amp;nbsp; + int getAllVisitors()&lt;/div&gt;&lt;div&gt;&amp;nbsp; + List&amp;lt;ChartVO&amp;gt; getWeeklySignups()&lt;/div&gt;&lt;div&gt;&amp;nbsp; + void insertVisitorLog(Long userId)&lt;/div&gt;&lt;div&gt;&amp;nbsp; + double getTodayRevenue()&lt;/div&gt;&lt;div&gt;&amp;nbsp; + List&amp;lt;ChartVO&amp;gt; getWeeklyRevenue()&lt;/div&gt;" style="rounded=0;whiteSpace=wrap;html=1;align=left;container=0;" vertex="1" parent="cep7ivkO_HnQBhiWhB2u-18">
          <mxGeometry y="60" width="351" height="110" as="geometry" />
        </mxCell>
        <mxCell id="cep7ivkO_HnQBhiWhB2u-20" value="&lt;div&gt;&amp;lt;&amp;lt;interface&amp;gt;&amp;gt;&lt;/div&gt;ChartMapper&amp;nbsp;" style="swimlane;fontStyle=0;childLayout=stackLayout;horizontal=1;startSize=30;horizontalStack=0;resizeParent=1;resizeParentMax=0;resizeLast=0;collapsible=1;marginBottom=0;whiteSpace=wrap;html=1;container=0;" vertex="1" parent="cep7ivkO_HnQBhiWhB2u-18">
          <mxGeometry width="351" height="60" as="geometry">
            <mxRectangle x="100" y="80" width="140" height="30" as="alternateBounds" />
          </mxGeometry>
        </mxCell>
      </root>
    </mxGraphModel>
  </diagram>
</mxfile>
